<svg width="320" height="320" viewBox="0 0 160 160" xmlns="http://www.w3.org/2000/svg">
  <defs>
    <linearGradient id="bg" x1="0%" y1="0%" x2="100%" y2="100%">
      <stop offset="0%" stop-color="#0B1E4D"/>
      <stop offset="55%" stop-color="#173C8A"/>
      <stop offset="100%" stop-color="#2E63C7"/>
    </linearGradient>
    <linearGradient id="gloss" x1="0%" y1="0%" x2="0%" y2="100%">
      <stop offset="0%" stop-color="#FFFFFF" stop-opacity="0.20"/>
      <stop offset="45%" stop-color="#FFFFFF" stop-opacity="0.03"/>
      <stop offset="46%" stop-color="#FFFFFF" stop-opacity="0"/>
    </linearGradient>
    <radialGradient id="vig" cx="50%" cy="100%" r="75%">
      <stop offset="0%" stop-color="#04102E" stop-opacity="0.38"/>
      <stop offset="60%" stop-color="#04102E" stop-opacity="0"/>
    </radialGradient>
    <filter id="sh" x="-40%" y="-40%" width="180%" height="180%">
      <feDropShadow dx="0" dy="4" stdDeviation="5" flood-color="#04102E" flood-opacity="0.35"/>
    </filter>
  <linearGradient id="routeGrad" x1="0%" y1="0%" x2="100%" y2="0%"><stop offset="0%" stop-color="#1F8A8C"/><stop offset="100%" stop-color="#8F6FE8"/></linearGradient></defs>
  <rect x="0" y="0" width="160" height="160" rx="34" fill="url(#bg)"/>
  <rect x="0" y="0" width="160" height="160" rx="34" fill="url(#vig)"/>
  <g fill="none" stroke="#F4F1EA" stroke-width="6" stroke-linecap="round" stroke-linejoin="round">

    <circle cx="80" cy="82" r="42" stroke-width="5.5"/>
    <ellipse cx="80" cy="82" rx="16" ry="42" stroke-width="4.5"/>
    <path d="M38.5,68 C55,62 105,62 121.5,68" stroke-width="4"/>
    <path d="M38.5,96 C55,102 105,102 121.5,96" stroke-width="4"/>
    <g stroke="none">
      <circle cx="60" cy="60" r="5" fill="#4CAF6D"/>
      <circle cx="103" cy="70" r="5" fill="#4CAF6D"/>
      <circle cx="94" cy="106" r="5" fill="#4CAF6D"/>
    </g>
  </g>
  <rect x="0" y="0" width="160" height="160" rx="34" fill="url(#gloss)"/>
</svg>
