<svg width="320" height="320" viewBox="0 0 160 160" xmlns="http://www.w3.org/2000/svg">
  <defs>
    <linearGradient id="bg" x1="0%" y1="0%" x2="100%" y2="100%">
      <stop offset="0%" stop-color="#0B1E4D"/>
      <stop offset="55%" stop-color="#173C8A"/>
      <stop offset="100%" stop-color="#2E63C7"/>
    </linearGradient>
    <linearGradient id="gloss" x1="0%" y1="0%" x2="0%" y2="100%">
      <stop offset="0%" stop-color="#FFFFFF" stop-opacity="0.20"/>
      <stop offset="45%" stop-color="#FFFFFF" stop-opacity="0.03"/>
      <stop offset="46%" stop-color="#FFFFFF" stop-opacity="0"/>
    </linearGradient>
    <radialGradient id="vig" cx="50%" cy="100%" r="75%">
      <stop offset="0%" stop-color="#04102E" stop-opacity="0.38"/>
      <stop offset="60%" stop-color="#04102E" stop-opacity="0"/>
    </radialGradient>
    <filter id="sh" x="-40%" y="-40%" width="180%" height="180%">
      <feDropShadow dx="0" dy="4" stdDeviation="5" flood-color="#04102E" flood-opacity="0.35"/>
    </filter>
  <linearGradient id="routeGrad" x1="0%" y1="0%" x2="100%" y2="0%"><stop offset="0%" stop-color="#1F8A8C"/><stop offset="100%" stop-color="#8F6FE8"/></linearGradient></defs>
  <rect x="0" y="0" width="160" height="160" rx="34" fill="url(#bg)"/>
  <rect x="0" y="0" width="160" height="160" rx="34" fill="url(#vig)"/>
  <g fill="none" stroke="#F4F1EA" stroke-width="6" stroke-linecap="round" stroke-linejoin="round">

    <path d="M50,38 H98 V108 L91,101 L84,108 L77,101 L70,108 L63,101 L56,108 L50,101 Z" stroke-width="5.5"/>
    <line x1="60" y1="56" x2="88" y2="56" stroke-width="4.5" stroke-dasharray="1 7"/>
    <line x1="60" y1="70" x2="88" y2="70" stroke-width="4.5" stroke-dasharray="1 7"/>
    <line x1="60" y1="84" x2="80" y2="84" stroke-width="4.5" stroke-dasharray="1 7"/>
    <circle cx="106" cy="94" r="16" stroke="#C1633A" stroke-width="5.5"/>
    <line x1="117" y1="105" x2="128" y2="116" stroke="#C1633A" stroke-width="6"/>
  </g>
  <rect x="0" y="0" width="160" height="160" rx="34" fill="url(#gloss)"/>
</svg>
